<svg width="33" height="37" viewBox="0 0 33 37" fill="none" xmlns="http://www.w3.org/2000/svg">
<g filter="url(#filter0_d_744_400)">
<rect x="4" width="25" height="25" rx="8" fill="white"/>
<path d="M14.847 18.8187C15.1844 19.2422 15.6798 19.5162 16.2236 19.5802C16.7674 19.6442 17.3148 19.4929 17.7446 19.1597C17.8767 19.0612 17.9957 18.9466 18.0985 18.8187M10.7564 14.0453V13.8974C10.7781 13.4596 10.9184 13.0354 11.1629 12.6686C11.5697 12.228 11.8482 11.688 11.9692 11.1054C11.9692 10.655 11.9692 10.1983 12.0085 9.74796C12.2117 7.57998 14.3554 6.08105 16.4728 6.08105H16.5252C18.6427 6.08105 20.7863 7.57998 20.9961 9.74796C21.0354 10.1983 20.9961 10.655 21.0288 11.1054C21.1514 11.6894 21.4297 12.231 21.8352 12.6751C22.0814 13.0386 22.2219 13.4612 22.2416 13.8974V14.0389C22.2562 14.627 22.0537 15.2005 21.6713 15.6536C21.166 16.1834 20.4803 16.513 19.744 16.58C17.5849 16.8116 15.4066 16.8116 13.2475 16.58C12.512 16.5101 11.8273 16.181 11.3202 15.6536C10.9437 15.2002 10.7439 14.6301 10.7564 14.0453Z" stroke="#A9A9A9" stroke-width="1.5" stroke-linecap="round" stroke-linejoin="round"/>
</g>
<defs>
<filter id="filter0_d_744_400" x="0" y="0" width="33" height="37" filterUnits="userSpaceOnUse" color-interpolation-filters="sRGB">
<feFlood flood-opacity="0" result="BackgroundImageFix"/>
<feColorMatrix in="SourceAlpha" type="matrix" values="0 0 0 0 0 0 0 0 0 0 0 0 0 0 0 0 0 0 127 0" result="hardAlpha"/>
<feOffset dy="8"/>
<feGaussianBlur stdDeviation="2"/>
<feComposite in2="hardAlpha" operator="out"/>
<feColorMatrix type="matrix" values="0 0 0 0 0.00411458 0 0 0 0 0.53363 0 0 0 0 0.9875 0 0 0 0.08 0"/>
<feBlend mode="normal" in2="BackgroundImageFix" result="effect1_dropShadow_744_400"/>
<feBlend mode="normal" in="SourceGraphic" in2="effect1_dropShadow_744_400" result="shape"/>
</filter>
</defs>
</svg>
