<svg width="80" height="42" viewBox="0 0 80 42" fill="none" xmlns="http://www.w3.org/2000/svg">
<path d="M30.3589 13.581H16.7201L11.6436 8.23181H35.9859L30.3589 13.581Z" stroke="#068FFF" stroke-width="0.5" stroke-miterlimit="10"/>
<path d="M26.383 19.7811H17.2093H12.1328V25.1303V36.1325H17.2093V25.1303H21.4296L26.383 19.7811Z" stroke="#068FFF" stroke-width="0.5" stroke-miterlimit="10"/>
<path d="M72.8982 18.5039V8.23181H72.6229H67.6681H58.7089H52.6689V13.581V30.7833V36.1325H58.7089H63.8158L68.4635 30.7833H58.7089V13.581H67.6681V18.5039H72.8982Z" stroke="#068FFF" stroke-width="0.5" stroke-miterlimit="10"/>
<path d="M44.6714 8.23181V19.7811H30.9095L26.1387 25.1303V36.1325H31.3383V25.1303H44.6714V36.1325H49.8696V8.23181H44.6714Z" stroke="#068FFF" stroke-width="0.5" stroke-miterlimit="10"/>
<path d="M29.5419 13.0051H15.9017L10.8252 7.65588H35.1675L29.5419 13.0051Z" fill="#068FFF"/>
<path d="M25.5646 19.2052H16.391H11.3145V24.5544V35.5565H16.391V24.5544H20.6113L25.5646 19.2052Z" fill="#068FFF"/>
<path d="M72.0799 17.928V7.65588H71.8046H66.8512H57.8905H51.8506V13.0051V30.2074V35.5565H57.8905H62.9975L67.6451 30.2074H57.8905V13.0051H66.8512V17.928H72.0799Z" fill="#068FFF"/>
<path d="M43.8526 7.65588V19.2052H30.0907L25.3213 24.5544V35.5565H30.5195V24.5544H43.8526V35.5565H49.0522V7.65588H43.8526Z" fill="#068FFF"/>
</svg>
